<?xml version="1.0" encoding="utf-8"?>
<!-- Generator: Adobe Illustrator 24.0.1, SVG Export Plug-In . SVG Version: 6.00 Build 0)  -->
<svg version="1.1" id="Layer_1" xmlns="http://www.w3.org/2000/svg" xmlns:xlink="http://www.w3.org/1999/xlink" x="0px" y="0px"
	 viewBox="0 0 966.2 965.3" style="enable-background:new 0 0 966.2 965.3;" xml:space="preserve">
<style type="text/css">
	.st0{stroke:#000000;stroke-width:20;stroke-miterlimit:10;}
	.st1{fill:none;}
</style>
<g>
	<path class="st0" d="M956.2,482.7c0-63.8-12.5-125.7-37.2-184c-23.8-56.3-57.9-106.8-101.4-150.2S723.6,71,667.2,47.1
		C608.9,22.5,546.9,10,483.1,10S357.3,22.5,298.9,47.2C242.6,71,192,105,148.6,148.4c-43.5,43.4-77.6,94-101.4,150.2
		C22.5,357,10,418.9,10,482.7s12.5,125.7,37.2,184c23.8,56.3,57.9,106.8,101.4,150.2s94,77.5,150.4,101.3
		c58.3,24.7,120.3,37.2,184.1,37.2s125.8-12.5,184.1-37.2c56.3-23.8,106.9-57.9,150.4-101.3c43.5-43.4,77.6-94,101.4-150.2
		C943.7,608.4,956.2,546.5,956.2,482.7z M483.1,941.3c-62,0-122.1-12.1-178.7-36c-54.7-23.1-103.8-56.2-145.9-98.3
		c-42.2-42.1-75.3-91.2-98.4-145.8C36.1,604.7,24,544.6,24,482.7s12.1-122,36.1-178.5c23.1-54.6,56.2-103.7,98.4-145.8
		c42.2-42.1,91.3-75.2,145.9-98.3C361,36.1,421.1,24,483.1,24s122.1,12.1,178.7,36c54.7,23.1,103.8,56.2,145.9,98.3
		c42.2,42.1,75.3,91.2,98.4,145.8c23.9,56.5,36.1,116.6,36.1,178.5s-12.1,122-36.1,178.5C883,715.8,849.9,764.9,807.7,807
		c-42.2,42.1-91.3,75.2-145.9,98.3C605.2,929.2,545.1,941.3,483.1,941.3z"/>
	<g>
		<path d="M567.6,621.6c-2.4-0.6-4.9-1-7-2.1c-3.4-1.9-4.7-5.6-5.8-9.1c-2.2-7-2.6-14.4-3-21.7c0-0.9,0-1.7,0-2.6
			c0-13.2,0-26.4,0-39.8c-6.2,0-12.2,0-18.2,0c-0.1,0-0.3,0.2-0.4,0.3c0,1.9,0,3.8,0,5.7c-0.3,11.7,1,23.4-1.8,34.9
			c-0.7,1.8-1.5,3.7-2.2,5.5c-1.8,4.8-4.4,9.1-7.9,12.7c-2.4,2.5-5.2,4.7-7.8,7c1,0.2,1.9,0.5,2.9,0.7c0.6,0.2,1.3,0.3,1.9,0.4
			c-0.6-0.1-1.3-0.3-1.9-0.4c-1-0.2-1.9-0.5-2.9-0.7c-0.2,0.1-0.5,0.1-0.7,0.2c-9.5,6-20,8.5-31,8.9c-3.7,0.1-7.6-0.4-11.3-1.1
			c-6.6-1.1-12.7-3.5-18-7.8c-2.4-2-4.7-4-7-6.1c-0.1-0.3-0.1-0.6-0.3-0.8c-1.6-2.4-3.4-4.7-4.8-7.2c-4.8-8.6-6.7-18.1-7.4-27.9
			c-0.1-0.6-0.2-1.2-0.3-1.8c0.1,0.6,0.2,1.2,0.3,1.8c0-8,0-16,0-24c-0.5-0.1-1.1-0.4-1.6-0.4c-4,0-7.9,0-11.9,0c-1.7,0-3.4,0-5.1,0
			c0,8.7,0,17.3,0,25.8c0,0.2,0.2,0.4,0.3,0.6c0.1,1.3,0.2,2.5,0.4,3.8c0.5,3.8,0.8,7.7,1.8,11.3c1.2,4.8,2.8,9.6,4.6,14.2
			c1.2,3,3.1,5.8,4.6,8.7c0.8,1.3,1.6,2.7,2.5,4c3.6,4.9,7.6,9.2,12.6,12.7c4.1,2.9,8.3,5.7,13,7.4c7.5,2.7,15.1,4.6,23.1,4.9
			c9,0.4,17.8-0.2,26.3-3.1c5.4-1.8,10.8-4,15.9-6.5c6.1-3.1,11.4-7.3,15.9-12.6c0.6-0.5,1.1-1,1.8-1.7c2.2,7.2,5.5,13.7,11.7,18.1
			c6.2,4.4,13.1,6.1,20.6,5.8c0-6.3,0-12.2,0-18.2C568.8,621.7,568.1,621.8,567.6,621.6z M425.1,561c2.5-0.8,5-1.7,7.5-2.6
			c0,3.3,0,6.6,0,9.9c0-3.3,0-6.6,0-9.9C430.1,559.3,427.6,560.2,425.1,561z"/>
		<path d="M733.2,469.5c-0.3-5.7-1.9-11.1-3.3-16.5c-1.7,0.2-3.5,0.4-5.2,0.7c1.7-0.2,3.5-0.4,5.2-0.7c-0.1-0.2-0.3-0.3-0.4-0.5
			c-0.1-0.3-0.2-0.6-0.3-0.9c-1-2.4-1.9-4.9-3.1-7.2c-3.5-6.3-7.6-12.2-13.3-17c-3.4-2.9-6.8-5.6-10.7-7.7
			c-5.2-2.8-10.6-5.2-16.2-6.7c-8.9-2.4-17.9-3.7-27.2-3.3l0,0c-2.5,0.3-5.1,0.7-7.6,1c-7.7,1-14.9,3.5-21.6,7.3
			c-0.2,0.1-0.5,0.1-0.6,0.2c-5.2,3.3-10.1,6.9-14.2,11.6c-3.8,4.4-7.1,9-9.6,14.2c-2.2,4.6-4,9.5-5.4,14.5
			c-1.8,6.1-2.9,12.3-2.7,18.7c0,0.1-0.1,0.2-0.1,0.4c-0.1,0.5-0.3,1-0.3,1.5c0,15.6,0,31.2,0,46.8c-3.1,0-6.1,0.1-9.2,0.1
			c-5.8,0-11.7,0-17.5,0c-0.1,0.5-0.3,1.1-0.3,1.6c0,4.6,0,9.1,0,13.7c0,1.1,0,2.1,0,3.4c9.1,0,18,0,27.1,0c0,8.7,0,17.3,0,25.9
			c0,0.6,0.2,1.2,0.3,1.8c0.1,1.2,0.3,2.4,0.4,3.7c0.4,3.3,0.5,6.6,1.2,9.8c1.7,7.7,3.9,15.2,7.9,22c2.1,3.6,4.6,6.9,6.9,10.3
			c0.8,1,1.5,2.1,2.5,2.9c3.1,2.7,6.3,5.2,9.6,7.8c5.4,4.3,11.8,6.7,18.4,8.5c4.2,1.1,8.5,1.7,12.8,2.3c7.4,0.9,14.7,0.5,22-0.9
			c8.2-1.6,15.9-4.4,23.2-8.4c7.5-4.1,13.9-9.7,19.1-16.5c0.7-1,0.7-1.7-0.5-2.4c-1.6-1-3-2.2-4.6-3.2c-3.1-2.2-6.2-4.3-9.2-6.5
			c-4.2,5.9-9.5,10.2-15.7,13.4c-8.1,4.2-16.9,6.1-26,6.6c-4.7,0.3-9.4-0.4-14-1.4c-9.3-2.1-17.1-6.5-23.2-13.9
			c-0.3,0.1-0.8,0.1-1,0.4c0.2-0.2,0.7-0.2,1-0.4c-3.1-3.6-5.3-7.6-7.2-12c-3.7-8.4-5.2-17.1-5.3-26.2c0-3.1,0-6.2,0-9.3
			c0-4.8,0-9.5,0-14.3c16.7,0,33.4,0,50.1,0c0.5,0,1-0.2,1.5-0.3c4.5-0.5,9-0.7,13.4-1.5c8.1-1.5,15.9-4.3,23.1-8.4
			c-0.4-0.5-0.8-1-1.2-1.5c0.4,0.5,0.8,1,1.2,1.5c7.3-3.9,13.6-9.1,18.5-15.8c2.3-3.1,4-6.7,6-10.1c0.1-0.3,0.2-0.5,0.3-0.8
			c0-0.1,0.1-0.2,0.1-0.4c0.3-0.6,0.7-1.1,1-1.7c3.3-8.2,4.5-16.9,4.8-25.6C733.9,476.5,733.3,473,733.2,469.5z M588,544.1
			L588,544.1c1.4,0,2.8,0,4.3,0C590.8,544.1,589.4,544.1,588,544.1z M714.4,488.9c-1,3.3-1.9,6.7-3.1,9.9
			c-2.5,6.4-6.8,11.5-12.2,15.7c-3.5,2.7-7.3,4.8-11.3,6.4c-0.3,0.1-0.5,0.3-0.7,0.5l0,0c-2.6,0.8-5.2,1.7-7.9,2.3
			c-5.3,1.3-10.7,2.1-16.3,2.1c-8.1,0-16.3,0-24.4,0c0.2,0.9,0.3,1.9,0.5,2.8c-0.2-0.9-0.3-1.9-0.5-2.8c-7.8,0-15.6,0-23.4,0
			c-0.2,0.2-0.3,0.3-0.5,0.5c0.2-0.2,0.3-0.3,0.5-0.5c0-15.2,0-30.3,0-45.5c0-0.8,0-1.6-0.1-2.4l0,0c0.7-4.5,1.2-9,2.3-13.4
			c1.8-7.7,5.2-14.8,10.1-21c1.2-1.6,2.8-2.9,4.2-4.3c6.1-5.2,13-8.5,20.9-9.9c2.6-0.5,5.3-0.8,8-1.2c-1-0.2-1.5-0.6-1.7-1.3
			c0.2,0.7,0.8,1.1,1.7,1.3c1.8,0,3.5,0.1,5.3,0.1c4.7,0,9.2,1,13.7,2.2c6.4,1.7,12.4,4.4,17.8,8.4c4.5,3.3,8.3,7.3,11.1,12.1
			c0.9,1.5,1.6,3.1,2.4,4.7c0,0,0,0,0,0c2.2,5.1,3.5,10.5,4.1,16c0.6,5.1,0.8,10.2-0.3,15.3C714.4,487.6,714.5,488.2,714.4,488.9
			c-0.1,0.9,0.2,1.5,0.8,2C714.6,490.4,714.3,489.8,714.4,488.9z"/>
		<path d="M359.9,442.2c-0.1-0.3-0.1-0.7-0.3-1c-1.5-2.3-3.2-4.5-4.6-6.8c-2.5-4-5.8-7.4-9.4-10.3c-5.9-4.8-12.5-8.7-19.9-10.6
			c-11.6-3.6-23.5-4.5-35.5-2.6c-9.5,1.5-18.5,4.3-26.6,9.4c-2.2,1.4-4.5,2.8-6.6,4.3c-2,1.5-3.8,3.2-5.9,4.8c0-13.7,0-27.1,0-40.6
			c0-22.7,0-45.3,0-68c-6.1,0-12.2,0-18.3,0c-0.1,0.5-0.4,1.1-0.4,1.6c0,67,0,133.9,0,200.9c5.7,0,11.4,0,17.1,0
			c0.5,0,1-0.3,1.5-0.4c0-8.4,0.1-16.8,0.1-25.2c0-6.9,0-13.9-0.1-20.8c0.2-2.6,0.1-5.3,0.6-7.9c0.6-3.3,1.7-6.6,2.5-9.9
			c2-5.2,4.5-10.2,8.3-14.4c4.1-4.6,9-8.1,14.5-10.6c4-1.8,8.3-2.9,12.4-4.3c0-1.4,0-2.8,0-4.2c0-2.8,0-5.6,0-8.4c0,2.8,0,5.6,0,8.4
			c0,1.4,0,2.8,0,4.2c2.7-0.5,5.4-1.2,8-1.3c5.9-0.3,11.8-0.3,17.6,1.3c3.3,0.9,6.6,2.1,9.8,3.1c0.2,0.2,0.5,0.3,0.7,0.5
			c5.2,2.7,9.8,6.3,13.5,10.9c3.1,3.8,5.3,8,7.3,12.4c0.1,0.3,0.1,0.6,0.2,0.9c3.4,8.4,4.6,17.2,4.6,26.2c0,4,0,8,0.1,12
			c0,9.1,0,18.3,0,27.4c0.3,0.1,0.6,0.3,0.9,0.3c5.5,0,10.9,0,16.4,0c0.3,0,0.6-0.2,0.9-0.3c0-2.6,0.1-5.2,0-7.8
			c0-9.6,0-19.2,0-28.8c0.3-8.3,0-16.5-2-24.6C365.7,455,363.7,448.2,359.9,442.2z M232.8,439.3c0-0.3-0.1-0.6-0.1-0.9
			C232.7,438.6,232.8,439,232.8,439.3L232.8,439.3c0,6.5,0,12.9,0,19.4l0,0C232.8,452.2,232.8,445.7,232.8,439.3z"/>
		<path d="M533.2,523c0.5,0.1,1,0.3,1.5,0.3c5.2,0,10.5,0,15.7,0c0.5,0,0.9-0.1,1.4-0.1c0-0.4,0-0.7,0-1c0-37,0-74,0-111
			c0-0.5-0.2-1-0.3-1.4c-6.1,0-12.1,0-18.2,0c0,0.4-0.1,0.7-0.1,0.9c0,24.7,0,49.3,0.1,74C533.3,497.4,533.2,510.2,533.2,523z
			 M548.3,489.4c1,0,2,0.2,3.1,0.2c0-0.7,0.1-1.5,0.1-2.2c0,0.7,0,1.5-0.1,2.2C550.4,489.6,549.3,489.4,548.3,489.4
			c-0.2,0-0.5,0-0.7,0C547.9,489.5,548.1,489.5,548.3,489.4z"/>
		<path d="M369.4,627.5c0-12.2,0-24.4,0-36.6c0-14.7,0-29.5,0-44.2c-0.3-0.1-0.6-0.3-0.9-0.3c-5.5,0-10.9,0-16.4,0
			c-0.3,0-0.6,0.2-0.9,0.3c0,16.3,0,32.7,0,49c0,11.6,0,23.2,0,34.7c0,2.6,0,5.2,0,7.8c0,1.2,0.3,1.7,1.6,1.7c5-0.1,10.1-0.1,15.1,0
			c1.4,0,1.6-0.5,1.6-1.7C369.4,634.6,369.4,631.1,369.4,627.5z"/>
		<path d="M432.5,523.3c0.2,0,0.3-0.2,0.5-0.4c0-0.2,0-0.4,0-0.5c0-37.1,0-74.2,0-111.3c0-0.5-0.2-1-0.4-1.5c-6,0-11.9,0-17.9,0
			c-0.1,0.6-0.4,1.2-0.4,1.8c0,36.7,0,73.3,0,110c0,0.6,0.1,1.2,0.1,1.9C420.6,523.3,426.5,523.3,432.5,523.3z M414.8,451
			c0-0.4,0-0.7,0-1.1C414.8,450.2,414.8,450.6,414.8,451L414.8,451z"/>
		<path d="M251,546.7c-0.1,0-0.2,0-0.3,0.1c0,7.3,0,14.6,0,21.8c0-7.3,0-14.6,0-21.8C250.7,546.8,250.9,546.8,251,546.7
			c-0.5-0.1-1-0.4-1.6-0.4c-5.7,0-11.4,0-17,0c0,28,0,56,0,84.1c0,3.2,0,6.3,0,9.5c6.1,0,12.2-0.1,18.3-0.1l0,0
			c0.1-0.6,0.2-1.3,0.2-1.9c0-12.3,0-24.6,0-36.9c0-4.9,0-9.9-0.1-14.8C250.9,573.1,250.9,559.9,251,546.7z M250.6,610
			c0,9.1,0,18.1,0.1,27.2C250.7,628.1,250.7,619,250.6,610c-5.9,0-11.9,0-17.8,0l0,0C238.7,610,244.7,610,250.6,610
			c0-7.9,0.1-15.8,0.1-23.7c0,0,0.1,0,0.1,0l-0.1,0C250.7,594.1,250.7,602.1,250.6,610z"/>
	</g>
</g>
<rect class="st1" width="965.3" height="965.3"/>
</svg>
