<?xml version="1.0" encoding="utf-8"?>
<!-- Generator: Adobe Illustrator 24.0.0, SVG Export Plug-In . SVG Version: 6.00 Build 0)  -->
<svg version="1.1" id="Layer_1" xmlns="http://www.w3.org/2000/svg" xmlns:xlink="http://www.w3.org/1999/xlink" x="0px" y="0px"
	 viewBox="0 0 434.1 356.8" style="enable-background:new 0 0 434.1 356.8;" xml:space="preserve">
<style type="text/css">
	.st0{fill:none;stroke:#231F20;stroke-width:3.0131;stroke-linecap:round;stroke-linejoin:round;}
</style>
<title>Icons</title>
<path class="st0" d="M133.3,324l-48.8-23.9 M128.4,315.3l-38.1-18.8 M119.4,305.3l-20.1-10.1 M144.3,334.4
	c0.4-9.7-7.5-22.9-20.9-33.2c-17.2-13.2-36.8-16.5-43.8-7.4c-1.7,2.2-2.5,4.9-2.5,7.7 M77.4,139.7c0,52.1,63.1,94.3,141,94.3
	s141-42.2,141-94.3c0-52.1-63.1-94.3-141-94.3S77.4,87.6,77.4,139.7z M363,244.5c7.8-8.2,15.4-17.1,22.7-26.5
	c15.1-19.2,28-40,38.6-62 M424.1,156.4c5.4-9.6,8.3-20.3,8.4-31.3c0-0.3,0-0.6,0-0.8 M28.6,206.1c18.2,15.2,45.9,32.4,78.4,47.8
	c18.8,9,38.2,16.7,58.1,23.1 M1.7,163.5c3.2,17.1,13.9,32.5,29.7,44.9 M1.5,156.5l2.3,63 M432.5,128.1l-1.2,59.4 M94.5,35.7
	c-1.3,1-2.6,1.9-3.9,2.9 M90.7,38.8c-27.9,20.9-52.3,46.1-72.5,74.5 M397.2,69.6c-18.6-15.1-50.8-32-89-45.7
	C289.9,17.3,271.1,12,252.1,8 M31.7,271.4c20,15.9,50.1,34.2,85.2,50.8c20.4,9.7,41.3,18.2,62.7,25.4 M351.2,315.1
	c12.7-12,24.5-25.1,35.3-38.9c15.2-19.4,28.2-40.4,38.7-62.7 M164.3,276.8c23.1,8.2,47.5,12.3,72.1,12.2
	c52.1,0,98.3-17.7,127.1-45.1 M424.6,214.2c4.4-8.2,6.7-17.4,6.7-26.7c0-0.2,0-0.5,0-0.7 M3.7,218.3c0.2,21.2,11.8,40.5,30.8,55.3
	 M18.4,113C7.7,125.6,1.5,140.2,1.5,155.8c0,1.3,0,2.5,0.1,3.8 M432.5,131.3c0.1-1.3,0.1-2.6,0.1-3.9c0-23-14.1-43.8-36.9-59
	 M252.7,8.1c-16.5-4.4-33.5-6.6-50.6-6.6c-42.3,0-80.6,13.2-108.1,34.6 M170.2,344.5c20.8,7.2,42.7,10.9,64.7,10.8
	c51.5,0,97.1-19.2,124.7-48.6"/>
<path class="st0" d="M249.3,105.5l-10.2,24.9 M231,101.9l-4.1,26.1 M212.1,101.5l2.1,26.1"/>
<path class="st0" d="M278.6,182.5l-20,0.1 M288.5,171.2l-23,3.8 M293.7,158.3l-24.4,7.4 M293.7,144.9l-24.4,12.3 M288.5,132.1
	l-22.4,16.8 M278.8,121l-19.1,20.3 M265.4,112l-14.9,23"/>
<line class="st0" x1="263.2" y1="192.4" x2="249.3" y2="188.5"/>
<path class="st0" d="M206.2,201.2l4.7-6.4 M226.9,201.7l-3.1-6.6 M246.2,198.6l-9.7-5.4"/>
<line class="st0" x1="187.3" y1="197.3" x2="198.2" y2="192.3"/>
<path class="st0" d="M162.5,118.4l17.5,20.7 M151.7,129.1l21.7,17.8 M145.2,141.8l24.1,13.6 M143.8,154.4l24.9,9.7 M147.8,167.9
	l23.8,5.2 M156.9,180l20.5,0.5 M169.7,189.6l17.2-2.1"/>
<line class="st0" x1="176.4" y1="110.1" x2="190.4" y2="133.6"/>
<line class="st0" x1="193.5" y1="104.3" x2="201.8" y2="129.6"/>
</svg>
