<svg id="svg" xmlns="http://www.w3.org/2000/svg" xmlns:xlink="http://www.w3.org/1999/xlink" width="400" height="400" viewBox="0, 0, 400,400"><g id="svgg"><path id="path0" d="M14.916 1.637 C 8.532 3.681,3.558 8.689,1.644 15.000 C 0.831 17.680,0.824 19.637,0.932 200.625 L 1.042 383.542 2.008 385.935 C 4.040 390.965,8.623 395.544,13.670 397.583 L 16.042 398.542 199.792 398.542 L 383.542 398.542 385.935 397.575 C 390.965 395.544,395.544 390.960,397.583 385.913 L 398.542 383.542 398.542 199.792 L 398.542 16.042 397.583 13.670 C 395.544 8.623,390.965 4.040,385.935 2.008 L 383.542 1.042 200.417 0.959 C 24.143 0.879,17.203 0.905,14.916 1.637 M380.720 18.864 L 381.875 20.019 381.875 199.792 L 381.875 379.564 380.720 380.720 L 379.564 381.875 199.792 381.875 L 20.019 381.875 18.864 380.720 L 17.708 379.564 17.708 199.816 L 17.708 20.067 18.698 19.014 C 19.242 18.435,20.085 17.882,20.573 17.786 C 21.060 17.690,102.032 17.633,200.511 17.660 L 379.564 17.708 380.720 18.864 M38.850 36.664 C 38.103 37.120,37.120 38.103,36.664 38.850 C 35.357 40.994,35.357 358.589,36.664 360.733 C 37.120 361.480,38.103 362.464,38.850 362.919 C 40.994 364.226,358.589 364.226,360.733 362.919 C 361.480 362.464,362.464 361.480,362.919 360.733 C 364.226 358.589,364.226 40.994,362.919 38.850 C 362.464 38.103,361.480 37.120,360.733 36.664 C 358.589 35.357,40.994 35.357,38.850 36.664 M115.417 79.792 L 115.417 115.417 79.792 115.417 L 44.167 115.417 44.167 79.792 L 44.167 44.167 79.792 44.167 L 115.417 44.167 115.417 79.792 M275.935 121.771 C 275.994 164.453,275.993 234.484,275.934 277.396 L 275.827 355.417 199.792 355.417 L 123.756 355.417 123.649 277.396 C 123.590 234.484,123.590 164.453,123.648 121.771 L 123.754 44.167 199.792 44.167 L 275.829 44.167 275.935 121.771 M355.417 79.792 L 355.417 115.417 319.792 115.417 L 284.167 115.417 284.167 79.792 L 284.167 44.167 319.792 44.167 L 355.417 44.167 355.417 79.792 M115.417 159.375 L 115.417 195.000 79.792 195.000 L 44.167 195.000 44.167 159.375 L 44.167 123.750 79.792 123.750 L 115.417 123.750 115.417 159.375 M355.417 159.375 L 355.417 195.000 319.792 195.000 L 284.167 195.000 284.167 159.375 L 284.167 123.750 319.792 123.750 L 355.417 123.750 355.417 159.375 M115.417 240.208 L 115.417 275.833 79.792 275.833 L 44.167 275.833 44.167 240.208 L 44.167 204.583 79.792 204.583 L 115.417 204.583 115.417 240.208 M355.417 240.208 L 355.417 275.833 319.792 275.833 L 284.167 275.833 284.167 240.208 L 284.167 204.583 319.792 204.583 L 355.417 204.583 355.417 240.208 M115.417 319.792 L 115.417 355.417 79.792 355.417 L 44.167 355.417 44.167 319.792 L 44.167 284.167 79.792 284.167 L 115.417 284.167 115.417 319.792 M355.417 319.792 L 355.417 355.417 319.792 355.417 L 284.167 355.417 284.167 319.792 L 284.167 284.167 319.792 284.167 L 355.417 284.167 355.417 319.792 " stroke="none" fill="#000000" fill-rule="evenodd"></path></g></svg>