<?xml version="1.0" encoding="utf-8"?>
<!-- Generator: Adobe Illustrator 24.0.0, SVG Export Plug-In . SVG Version: 6.00 Build 0)  -->
<svg version="1.1" id="Layer_1" xmlns="http://www.w3.org/2000/svg" xmlns:xlink="http://www.w3.org/1999/xlink" x="0px" y="0px"
	 viewBox="0 0 429.1 352.7" style="enable-background:new 0 0 429.1 352.7;" xml:space="preserve">
<style type="text/css">
	.st0{fill:none;stroke:#231F20;stroke-width:2.9784;stroke-linecap:round;stroke-linejoin:round;}
</style>
<title>Icons</title>
<path class="st0" d="M131.7,320.3l-48.2-23.7 M126.9,311.6l-37.7-18.6 M118,301.8l-19.9-10 M142.6,330.5c0.4-9.6-7.4-22.7-20.7-32.9
	c-17-13.1-36.4-16.4-43.3-7.3c-1.6,2.2-2.5,4.9-2.5,7.6 M76.5,138.1c0,51.5,62.4,93.2,139.4,93.2s139.4-41.7,139.4-93.2
	c0-51.5-62.4-93.2-139.4-93.2S76.5,86.6,76.5,138.1L76.5,138.1z M358.8,241.7c7.7-8.1,15.2-16.9,22.4-26.2
	c14.9-19,27.7-39.5,38.2-61.2 M419.2,154.6c5.4-9.4,8.2-20.1,8.3-31c0-0.3,0-0.6,0-0.8 M28.3,203.8c18,15,45.4,32,77.5,47.3
	c18.6,8.9,37.8,16.5,57.4,22.8 M1.7,161.6C4.9,178.5,15.4,193.8,31,206 M1.5,154.7L3.7,217 M427.6,126.7l-1.2,58.7 M93.4,35.3
	c-1.3,0.9-2.6,1.9-3.9,2.9 M89.7,38.3C62.1,59,37.9,83.8,18,111.9 M392.7,68.8c-18.3-14.9-50.2-31.7-88-45.1
	c-18.1-6.5-36.7-11.8-55.5-15.8 M31.4,268.3c19.8,15.7,49.6,33.8,84.3,50.2c20.1,9.6,40.8,18,62,25.1 M347.1,311.4
	c12.6-11.9,24.2-24.8,34.9-38.5c15-19.2,27.9-40,38.3-62 M162.4,273.6c22.9,8.1,47,12.2,71.2,12.1c51.5,0,97.2-17.5,125.6-44.6
	 M419.7,211.7c4.3-8.1,6.6-17.2,6.6-26.4c0-0.2,0-0.5,0-0.7 M3.7,215.8c0.2,20.9,11.6,40,30.4,54.7 M18.2,111.7
	C7.6,124.2,1.5,138.6,1.5,154c0,1.2,0,2.5,0.1,3.7 M427.5,129.7c0.1-1.3,0.1-2.5,0.1-3.8c0-22.7-13.9-43.3-36.5-58.3 M249.8,8
	c-16.3-4.4-33.2-6.6-50-6.5c-41.8,0-79.6,13.1-106.8,34.2 M168.3,340.5c20.6,7.1,42.2,10.8,64,10.7c50.9,0,95.9-19,123.3-48"/>
<path class="st0" d="M246.4,104.3l-10,24.6 M228.3,100.7l-4,25.8 M209.7,100.3l2.1,25.8"/>
<path class="st0" d="M275.4,180.4l-19.8,0.1 M285.1,169.2l-22.8,3.7 M290.3,156.5l-24.2,7.3 M290.3,143.3l-24.2,12.1 M285.1,130.6
	L263,147.2 M275.6,119.6l-18.9,20 M262.4,110.7l-14.7,22.7"/>
<line class="st0" x1="260.2" y1="190.2" x2="246.4" y2="186.4"/>
<path class="st0" d="M203.8,198.9l4.6-6.4 M224.3,199.4l-3.1-6.5 M243.3,196.3l-9.6-5.3"/>
<line class="st0" x1="185.1" y1="195" x2="195.9" y2="190.1"/>
<path class="st0" d="M160.7,117l17.3,20.4 M150,127.6l21.4,17.6 M143.5,140.2l23.8,13.4 M142.1,152.7l24.6,9.6 M146.1,165.9
	l23.5,5.1 M155.1,178l20.2,0.5 M167.7,187.5l17-2.1"/>
<line class="st0" x1="174.4" y1="108.9" x2="188.2" y2="132"/>
<line class="st0" x1="191.2" y1="103.1" x2="199.5" y2="128.2"/>
</svg>
