<?xml version="1.0" encoding="utf-8"?>
<!-- Generator: Adobe Illustrator 24.0.1, SVG Export Plug-In . SVG Version: 6.00 Build 0)  -->
<svg version="1.1" id="Laag_1" xmlns="http://www.w3.org/2000/svg" xmlns:xlink="http://www.w3.org/1999/xlink" x="0px" y="0px"
	 viewBox="0 0 809.24 756.16" style="enable-background:new 0 0 809.24 756.16;" xml:space="preserve">
<style type="text/css">
	.st0{fill:none;stroke:#000000;stroke-width:5;stroke-miterlimit:10;}
</style>
<path class="st0" d="M403.21,63.6c0.95-0.02,0.95-0.01,1.9-0.01c30.74,0,55.68,9.34,55.68,20.85s-24.94,20.84-55.68,20.84
	c-0.97,0-0.88,0.01-1.84,0 M403.01,79.94c1.46-0.03,0.89-0.02,2.38-0.02c26.27,0,47.57,5.68,47.57,12.69
	c0,6.99-21.3,12.67-47.57,12.67c-1.07,0-1.07,0.01-2.11,0 M762.58,264.79l-20.59-60.76 M770.66,361.86l-8.21-98.74 M804.98,537.5
	l-35.19-181.75 M403.99,2.54c1.55-0.01,1.14-0.03,2.68-0.03c188.56,0,347.2,53.46,341.43,172.22
	c-4.62,95.02-152.87,172.23-341.43,172.23c-3.05,0-0.49,0.02-3.53-0.01 M800.36,513.6c1.26,2.59,6.38,33.87,6.38,42.67
	c0,109.01-175.19,197.36-391.27,197.36c-6.01,0-6.03,0.07-11.98-0.07 M772.34,370.94c1.12,5.87,1.18,11.81,1.18,17.82
	c0,101.21-162.66,183.25-363.29,183.25c-3.88,0-2.6-0.03-6.46-0.09 M764.58,283.6c0,1.98-0.07,3.96-0.2,5.93 M764.38,289.53
	c-6.2,95.76-162.05,172.43-353.38,172.43c-3.62,0-3.97,0.04-7.56,0 M403.32,2.51c1.29-0.01,1.51,0,3.35,0
	c158.25,0,284.89,48.02,284.89,118c0,70-128.3,126.73-286.55,126.73c-1.37,0-0.63-0.02-2-0.02 M403.63,6.07c2.24-0.02,2.87,0,5.12,0
	c134.75,0,244.01,46.84,244.01,104.61c0,57.79-109.25,104.62-244.01,104.62c-3.51,0-2.27,0.03-5.74-0.03 M406.03,63.6
	c-0.95-0.02-0.96-0.01-1.91-0.01c-30.74,0-55.67,9.34-55.67,20.85s24.93,20.84,55.67,20.84c0.97,0,0.89,0.01,1.85,0 M406.23,79.94
	c-1.46-0.03-0.9-0.02-2.39-0.02c-26.26,0-47.56,5.68-47.56,12.69c0,6.99,21.3,12.67,47.56,12.67c1.07,0,1.08,0.01,2.13,0
	 M46.64,264.79l20.59-60.76 M38.56,361.86l8.23-98.74 M4.25,537.5l35.2-181.75 M405.25,2.54c-1.55-0.01-1.14-0.03-2.69-0.03
	C214,2.51,55.36,55.96,61.12,174.72C65.74,269.74,214,346.95,402.55,346.95c3.06,0,0.5,0.02,3.53-0.01 M8.88,513.6
	c-1.26,2.59-6.38,33.87-6.38,42.67c0,109.01,175.18,197.36,391.27,197.36c6,0,6.03,0.07,11.96-0.07 M36.89,370.94
	c-1.12,5.87-1.18,11.81-1.18,17.82c0,101.21,162.66,183.25,363.29,183.25c3.87,0,2.6-0.03,6.44-0.09 M44.66,283.6
	c0,1.98,0.07,3.96,0.19,5.93 M44.85,289.53c6.2,95.76,162.04,172.43,353.4,172.43c3.62,0,3.96,0.04,7.56,0 M405.92,2.51
	c-1.29-0.01-1.51,0-3.36,0c-158.25,0-284.89,48.02-284.89,118c0,70,128.3,126.73,286.55,126.73c1.38,0,0.65-0.02,2.01-0.02
	 M405.59,6.07c-2.24-0.02-2.86,0-5.11,0c-134.76,0-244.02,46.84-244.02,104.61c0,57.79,109.25,104.62,244.02,104.62
	c3.51,0,2.27,0.03,5.74-0.03"/>
</svg>
